<svg width="510" height="97" viewBox="0 0 510 97" fill="none" xmlns="http://www.w3.org/2000/svg">
<g clip-path="url(#clip0_5_40)">
<path d="M135.8 79.152C126.84 79.152 120.216 76.112 115.928 70.032C111.704 63.952 109.592 55.44 109.592 44.496C109.592 33.552 111.704 25.04 115.928 18.96C120.216 12.88 126.84 9.84 135.8 9.84C144.76 9.84 151.352 12.88 155.576 18.96C159.864 25.04 162.008 33.552 162.008 44.496C162.008 55.44 159.864 63.952 155.576 70.032C151.352 76.112 144.76 79.152 135.8 79.152ZM135.8 67.536C139.896 67.536 142.712 66.032 144.248 63.024C145.848 59.952 146.648 55.696 146.648 50.256V38.64C146.648 33.264 145.848 29.072 144.248 26.064C142.712 22.992 139.896 21.456 135.8 21.456C131.704 21.456 128.856 22.992 127.256 26.064C125.72 29.072 124.952 33.264 124.952 38.64V50.352C124.952 55.728 125.72 59.952 127.256 63.024C128.856 66.032 131.704 67.536 135.8 67.536ZM170.227 28.464H184.435V37.488H185.107C186.323 34.544 188.083 32.112 190.387 30.192C192.691 28.272 195.827 27.312 199.795 27.312C202.547 27.312 205.043 27.824 207.283 28.848C209.587 29.872 211.539 31.44 213.139 33.552C214.803 35.664 216.083 38.352 216.979 41.616C217.939 44.88 218.419 48.752 218.419 53.232C218.419 57.712 217.939 61.584 216.979 64.848C216.083 68.112 214.803 70.8 213.139 72.912C211.539 75.024 209.587 76.592 207.283 77.616C205.043 78.64 202.547 79.152 199.795 79.152C195.827 79.152 192.691 78.224 190.387 76.368C188.083 74.448 186.323 71.984 185.107 68.976H184.435V97.2H170.227V28.464ZM193.651 68.112C196.851 68.112 199.315 67.152 201.043 65.232C202.771 63.248 203.635 60.528 203.635 57.072V49.392C203.635 45.936 202.771 43.248 201.043 41.328C199.315 39.344 196.851 38.352 193.651 38.352C191.155 38.352 188.979 38.96 187.123 40.176C185.331 41.392 184.435 43.312 184.435 45.936V60.528C184.435 63.152 185.331 65.072 187.123 66.288C188.979 67.504 191.155 68.112 193.651 68.112ZM252.269 79.152C243.949 79.152 237.645 76.848 233.357 72.24C229.069 67.632 226.925 61.36 226.925 53.424C226.925 49.392 227.469 45.776 228.557 42.576C229.709 39.312 231.309 36.56 233.357 34.32C235.469 32.016 237.997 30.288 240.941 29.136C243.949 27.92 247.309 27.312 251.021 27.312C254.733 27.312 258.061 27.92 261.005 29.136C263.949 30.288 266.445 31.952 268.493 34.128C270.541 36.304 272.109 38.96 273.197 42.096C274.349 45.168 274.925 48.624 274.925 52.464V56.688H241.037V57.552C241.037 60.752 242.029 63.344 244.013 65.328C245.997 67.248 248.909 68.208 252.749 68.208C255.693 68.208 258.221 67.664 260.333 66.576C262.445 65.424 264.269 63.92 265.805 62.064L273.485 70.416C271.565 72.784 268.877 74.832 265.421 76.56C261.965 78.288 257.581 79.152 252.269 79.152ZM251.117 37.488C248.045 37.488 245.581 38.448 243.725 40.368C241.933 42.224 241.037 44.752 241.037 47.952V48.72H261.005V47.952C261.005 44.688 260.109 42.128 258.317 40.272C256.589 38.416 254.189 37.488 251.117 37.488ZM285.928 78V28.464H300.136V37.488H300.712C301.288 36.08 301.992 34.768 302.824 33.552C303.656 32.336 304.648 31.28 305.8 30.384C307.016 29.424 308.392 28.688 309.928 28.176C311.528 27.6 313.32 27.312 315.304 27.312C317.672 27.312 319.848 27.728 321.832 28.56C323.816 29.328 325.512 30.512 326.92 32.112C328.328 33.712 329.416 35.664 330.184 37.968C331.016 40.272 331.432 42.928 331.432 45.936V78H317.224V47.856C317.224 41.456 314.44 38.256 308.872 38.256C307.784 38.256 306.696 38.416 305.608 38.736C304.584 38.992 303.656 39.44 302.824 40.08C301.992 40.656 301.32 41.392 300.808 42.288C300.36 43.184 300.136 44.24 300.136 45.456V78H285.928ZM376.706 68.496H375.842C375.266 69.904 374.562 71.248 373.73 72.528C372.898 73.808 371.874 74.96 370.658 75.984C369.442 76.944 368.002 77.712 366.338 78.288C364.738 78.864 362.914 79.152 360.866 79.152C357.602 79.152 354.69 78.384 352.13 76.848C349.634 75.312 347.522 73.072 345.794 70.128C344.066 67.184 342.754 63.6 341.858 59.376C341.026 55.152 340.61 50.384 340.61 45.072C340.61 33.68 342.69 24.976 346.85 18.96C351.01 12.88 357.442 9.84 366.146 9.84C369.602 9.84 372.642 10.32 375.266 11.28C377.89 12.176 380.13 13.488 381.986 15.216C383.906 16.88 385.474 18.896 386.69 21.264C387.906 23.632 388.866 26.256 389.57 29.136L376.13 32.4C375.746 30.992 375.298 29.648 374.786 28.368C374.338 27.024 373.73 25.84 372.962 24.816C372.194 23.792 371.234 22.992 370.082 22.416C368.93 21.776 367.522 21.456 365.858 21.456C362.21 21.456 359.618 22.96 358.082 25.968C356.61 28.976 355.874 33.2 355.874 38.64V49.584C355.874 55.024 356.674 59.376 358.274 62.64C359.938 65.904 362.85 67.536 367.01 67.536C370.274 67.536 372.706 66.576 374.306 64.656C375.906 62.736 376.706 60.272 376.706 57.264V52.368H365.282V42.192H389.57V78H376.706V68.496ZM424.957 79.152C416.637 79.152 410.333 76.848 406.045 72.24C401.757 67.632 399.613 61.36 399.613 53.424C399.613 49.392 400.157 45.776 401.245 42.576C402.397 39.312 403.997 36.56 406.045 34.32C408.157 32.016 410.685 30.288 413.629 29.136C416.637 27.92 419.997 27.312 423.709 27.312C427.421 27.312 430.749 27.92 433.693 29.136C436.637 30.288 439.133 31.952 441.181 34.128C443.229 36.304 444.797 38.96 445.885 42.096C447.037 45.168 447.613 48.624 447.613 52.464V56.688H413.725V57.552C413.725 60.752 414.717 63.344 416.701 65.328C418.685 67.248 421.597 68.208 425.437 68.208C428.381 68.208 430.909 67.664 433.021 66.576C435.133 65.424 436.957 63.92 438.493 62.064L446.173 70.416C444.253 72.784 441.565 74.832 438.109 76.56C434.653 78.288 430.269 79.152 424.957 79.152ZM423.805 37.488C420.733 37.488 418.269 38.448 416.413 40.368C414.621 42.224 413.725 44.752 413.725 47.952V48.72H433.693V47.952C433.693 44.688 432.797 42.128 431.005 40.272C429.277 38.416 426.877 37.488 423.805 37.488ZM458.615 78V28.464H472.823V37.488H473.399C473.975 36.08 474.679 34.768 475.511 33.552C476.343 32.336 477.335 31.28 478.487 30.384C479.703 29.424 481.079 28.688 482.615 28.176C484.215 27.6 486.007 27.312 487.991 27.312C490.359 27.312 492.535 27.728 494.519 28.56C496.503 29.328 498.199 30.512 499.607 32.112C501.015 33.712 502.103 35.664 502.871 37.968C503.703 40.272 504.119 42.928 504.119 45.936V78H489.911V47.856C489.911 41.456 487.127 38.256 481.559 38.256C480.471 38.256 479.383 38.416 478.295 38.736C477.271 38.992 476.343 39.44 475.511 40.08C474.679 40.656 474.007 41.392 473.495 42.288C473.047 43.184 472.823 44.24 472.823 45.456V78H458.615Z" fill="white"/>
<path d="M48 4C57.3887 4 64.9998 11.6114 65 21C65 26.5466 69.4964 31.043 75.043 31.043H79C88.3888 31.043 96 38.6541 96 48.043V76.043C96 85.4318 88.3888 93.043 79 93.043H51C41.6112 93.043 34 85.4318 34 76.043C34 70.4964 29.5036 66 23.957 66H20C10.6112 66 3 58.3888 3 49V21C3.00022 11.6114 10.6113 4 20 4H48Z" fill="white"/>
</g>
<defs>
<clipPath id="clip0_5_40">
<rect width="510" height="97" fill="white"/>
</clipPath>
</defs>
</svg>
